<?xml version="1.0" encoding="utf-8"?>
<!-- Generator: Adobe Illustrator 16.0.0, SVG Export Plug-In . SVG Version: 6.00 Build 0)  -->
<!DOCTYPE svg PUBLIC "-//W3C//DTD SVG 1.1//EN" "http://www.w3.org/Graphics/SVG/1.1/DTD/svg11.dtd">
<svg version="1.1" id="Layer_1" xmlns="http://www.w3.org/2000/svg" xmlns:xlink="http://www.w3.org/1999/xlink" x="0px" y="0px"
	 width="512px" height="512px" viewBox="0 0 512 512" enable-background="new 0 0 512 512" xml:space="preserve">
<g>
	<path fill="#666666" d="M435.9,100.9L252.1,203.2l96.6,56.1L456,200.2v-87.7C456,99.8,446.9,94.5,435.9,100.9z"/>
	<g>
		<path fill="#404040" d="M366,249.8v104.3c0,12.8,2.5,19.4,13.6,25.8l56.3,31.2c11.1,6.4,20.1,1.2,20.1-11.6V200.3L366,249.8z"/>
	</g>
	<path fill="#8C8C8C" d="M146,251.7l87.5,50.1c6.9,4.8,26.8,7.7,40.1,0l75.1-42.4L146,141.5V251.7z"/>
	<polygon fill="#333333" points="252.1,203.2 348.7,259.3 355.2,255.8 258.5,199.6 	"/>
	<path fill="#BFBFBF" d="M56,112.6c0-12.8,9.1-18,20.1-11.6l69.8,40.4v212.8c0,12.8-2.5,19.4-13.6,25.8l-56.3,31.2
		c-11.1,6.4-20.1,1.2-20.1-11.6V112.6z"/>
	<polygon fill="#4D4D4D" points="152.3,145.2 146,141.5 146,251.7 152.3,255.3 	"/>
	<polygon fill="#262626" points="366,249.8 366,257.2 456,207.2 456,200.3 	"/>
</g>
</svg>
