<?xml version="1.0" encoding="utf-8"?>
<!-- Generator: Adobe Illustrator 16.0.0, SVG Export Plug-In . SVG Version: 6.00 Build 0)  -->
<!DOCTYPE svg PUBLIC "-//W3C//DTD SVG 1.1//EN" "http://www.w3.org/Graphics/SVG/1.1/DTD/svg11.dtd">
<svg version="1.1" id="Layer_1" xmlns="http://www.w3.org/2000/svg" xmlns:xlink="http://www.w3.org/1999/xlink" x="0px" y="0px"
	 width="512px" height="512px" viewBox="0 0 512 512" enable-background="new 0 0 512 512" xml:space="preserve">
<g>
	<g>
		<g>
			<g>
				<path fill="#231F20" d="M136.7,406.5h6.1v33.7h-6.1V406.5z"/>
				<path fill="#231F20" d="M150.6,415.6c1.1-0.3,2.6-0.6,4.4-0.9c1.8-0.3,3.8-0.4,6-0.4c2.1,0,3.8,0.3,5.2,0.9
					c1.4,0.6,2.5,1.4,3.3,2.4c0.8,1,1.4,2.3,1.8,3.7c0.3,1.4,0.5,3,0.5,4.7v14.3h-5.9v-13.4c0-1.4-0.1-2.5-0.3-3.5
					c-0.2-1-0.5-1.7-0.9-2.3c-0.4-0.6-1-1-1.7-1.3c-0.7-0.3-1.5-0.4-2.6-0.4c-0.7,0-1.5,0-2.3,0.1c-0.8,0.1-1.4,0.2-1.8,0.2v20.5
					h-5.9V415.6z"/>
				<path fill="#231F20" d="M178.7,408l5.9-1v7.7h9v4.9h-9V430c0,2,0.3,3.5,1,4.4c0.6,0.9,1.8,1.3,3.3,1.3c1.1,0,2-0.1,2.8-0.3
					s1.5-0.4,2-0.6l1,4.7c-0.7,0.3-1.6,0.6-2.7,0.9c-1.1,0.3-2.4,0.5-3.9,0.5c-1.8,0-3.3-0.2-4.5-0.7s-2.2-1.2-2.9-2.1
					c-0.7-0.9-1.2-2-1.5-3.4c-0.3-1.3-0.4-2.8-0.4-4.5V408z"/>
				<path fill="#231F20" d="M197.5,427.6c0-2.2,0.3-4.2,1-5.9c0.7-1.7,1.5-3.1,2.6-4.2s2.4-2,3.8-2.5s2.9-0.8,4.4-0.8
					c3.5,0,6.2,1.1,8.2,3.3c2,2.2,2.9,5.4,2.9,9.7c0,0.3,0,0.7,0,1.1c0,0.4,0,0.8-0.1,1.1h-16.8c0.2,2,0.9,3.6,2.2,4.7
					c1.3,1.1,3.1,1.7,5.6,1.7c1.4,0,2.7-0.1,3.9-0.4c1.2-0.3,2.1-0.5,2.8-0.8l0.8,4.8c-0.3,0.2-0.8,0.3-1.3,0.5
					c-0.6,0.2-1.2,0.3-1.9,0.5c-0.7,0.1-1.5,0.3-2.4,0.4c-0.8,0.1-1.7,0.1-2.6,0.1c-2.2,0-4.2-0.3-5.8-1c-1.7-0.7-3-1.6-4.1-2.8
					c-1.1-1.2-1.9-2.6-2.4-4.2C197.7,431.3,197.5,429.5,197.5,427.6z M214.5,425c0-0.8-0.1-1.6-0.3-2.3s-0.6-1.4-1-1.9
					c-0.4-0.5-1-1-1.6-1.3c-0.6-0.3-1.4-0.5-2.3-0.5c-0.9,0-1.7,0.2-2.4,0.5s-1.3,0.8-1.7,1.3c-0.5,0.6-0.8,1.2-1.1,1.9
					c-0.3,0.7-0.4,1.4-0.5,2.2H214.5z"/>
				<path fill="#231F20" d="M241.1,420.1c-0.5-0.2-1.2-0.3-2-0.5c-0.9-0.2-1.9-0.3-3-0.3c-0.6,0-1.3,0.1-2.1,0.2
					c-0.7,0.1-1.2,0.2-1.5,0.3v20.4h-5.9V416c1.1-0.4,2.6-0.8,4.3-1.2c1.7-0.4,3.6-0.6,5.7-0.6c0.4,0,0.8,0,1.4,0.1
					c0.5,0,1,0.1,1.6,0.2c0.5,0.1,1,0.2,1.5,0.3c0.5,0.1,0.9,0.2,1.2,0.3L241.1,420.1z"/>
				<path fill="#231F20" d="M254.7,414.1c1.9,0,3.6,0.2,4.9,0.7c1.3,0.5,2.4,1.2,3.2,2c0.8,0.9,1.4,1.9,1.7,3.2
					c0.3,1.2,0.5,2.6,0.5,4.1v15.4c-0.9,0.2-2.3,0.4-4.1,0.7s-3.9,0.4-6.2,0.4c-1.5,0-2.9-0.1-4.2-0.4c-1.3-0.3-2.3-0.8-3.2-1.4
					c-0.9-0.6-1.6-1.5-2.1-2.5s-0.8-2.3-0.8-3.8c0-1.5,0.3-2.7,0.9-3.7c0.6-1,1.3-1.8,2.3-2.5c1-0.6,2.1-1.1,3.4-1.4
					c1.3-0.3,2.6-0.4,4-0.4c0.6,0,1.3,0,2,0.1c0.7,0.1,1.5,0.2,2.3,0.4v-1c0-0.7-0.1-1.3-0.2-1.9c-0.2-0.6-0.4-1.2-0.9-1.6
					c-0.4-0.5-0.9-0.8-1.6-1.1s-1.5-0.4-2.5-0.4c-1.4,0-2.6,0.1-3.7,0.3c-1.1,0.2-2.1,0.4-2.8,0.7l-0.7-4.8c0.7-0.3,1.8-0.5,3.3-0.8
					S253,414.1,254.7,414.1z M255.2,436c1.8,0,3.2-0.1,4.1-0.3v-6.5c-0.3-0.1-0.8-0.2-1.4-0.3c-0.6-0.1-1.3-0.1-2-0.1
					c-0.6,0-1.3,0-2,0.1c-0.7,0.1-1.3,0.3-1.8,0.5c-0.5,0.3-1,0.6-1.3,1.1c-0.3,0.5-0.5,1.1-0.5,1.8c0,1.4,0.4,2.4,1.3,2.9
					S253.7,436,255.2,436z"/>
				<path fill="#231F20" d="M270.8,427.5c0-1.9,0.3-3.6,0.9-5.3s1.4-3.1,2.5-4.3c1.1-1.2,2.4-2.1,4-2.8c1.6-0.7,3.3-1,5.2-1
					c2.4,0,4.7,0.4,6.8,1.3l-1.3,4.8c-0.7-0.3-1.5-0.5-2.3-0.7c-0.9-0.2-1.8-0.3-2.7-0.3c-2.3,0-4.1,0.7-5.2,2.2
					c-1.2,1.4-1.8,3.5-1.8,6.1c0,2.5,0.6,4.5,1.7,6c1.1,1.5,3,2.2,5.7,2.2c1,0,2-0.1,3-0.3c1-0.2,1.8-0.4,2.5-0.7l0.8,4.9
					c-0.6,0.3-1.6,0.6-2.9,0.9c-1.3,0.3-2.7,0.4-4.1,0.4c-2.2,0-4.1-0.3-5.7-1c-1.6-0.7-2.9-1.6-4-2.8c-1.1-1.2-1.8-2.6-2.4-4.2
					S270.8,429.4,270.8,427.5z"/>
				<path fill="#231F20" d="M294.8,408l5.9-1v7.7h9v4.9h-9V430c0,2,0.3,3.5,1,4.4c0.6,0.9,1.8,1.3,3.3,1.3c1.1,0,2-0.1,2.8-0.3
					s1.5-0.4,2-0.6l1,4.7c-0.7,0.3-1.6,0.6-2.7,0.9c-1.1,0.3-2.4,0.5-3.9,0.5c-1.8,0-3.3-0.2-4.5-0.7c-1.2-0.5-2.2-1.2-2.9-2.1
					c-0.7-0.9-1.2-2-1.5-3.4c-0.3-1.3-0.4-2.8-0.4-4.5V408z"/>
				<path fill="#231F20" d="M322,407.3c0,1.1-0.4,2-1.1,2.6c-0.7,0.6-1.6,1-2.5,1c-1,0-1.9-0.3-2.6-1c-0.7-0.6-1.1-1.5-1.1-2.6
					c0-1.1,0.4-2,1.1-2.7s1.6-1,2.6-1c1,0,1.8,0.3,2.5,1S322,406.2,322,407.3z M321.3,440.2h-5.9v-25.4h5.9V440.2z"/>
				<path fill="#231F20" d="M335.4,440.2c-1.6-3.3-3.3-7.2-5-11.5c-1.7-4.3-3.3-9-4.7-13.9h6.3c0.4,1.4,0.8,3,1.2,4.6s1,3.3,1.5,4.9
					s1.1,3.2,1.7,4.8c0.6,1.5,1.1,2.9,1.6,4.2c0.5-1.2,1-2.6,1.6-4.2s1.1-3.1,1.6-4.8c0.5-1.6,1-3.3,1.5-4.9
					c0.5-1.6,0.9-3.2,1.3-4.6h6.1c-1.4,5-3,9.6-4.7,13.9c-1.7,4.3-3.4,8.2-5,11.5H335.4z"/>
				<path fill="#231F20" d="M352.4,427.6c0-2.2,0.3-4.2,1-5.9c0.7-1.7,1.5-3.1,2.6-4.2c1.1-1.1,2.4-2,3.8-2.5
					c1.4-0.6,2.9-0.8,4.4-0.8c3.5,0,6.2,1.1,8.2,3.3c2,2.2,2.9,5.4,2.9,9.7c0,0.3,0,0.7,0,1.1c0,0.4,0,0.8-0.1,1.1h-16.8
					c0.2,2,0.9,3.6,2.2,4.7c1.3,1.1,3.1,1.7,5.6,1.7c1.4,0,2.7-0.1,3.9-0.4c1.2-0.3,2.1-0.5,2.8-0.8l0.8,4.8
					c-0.3,0.2-0.8,0.3-1.3,0.5c-0.6,0.2-1.2,0.3-1.9,0.5c-0.7,0.1-1.5,0.3-2.4,0.4c-0.8,0.1-1.7,0.1-2.6,0.1c-2.2,0-4.2-0.3-5.8-1
					c-1.7-0.7-3-1.6-4.1-2.8c-1.1-1.2-1.9-2.6-2.4-4.2C352.7,431.3,352.4,429.5,352.4,427.6z M369.5,425c0-0.8-0.1-1.6-0.3-2.3
					c-0.2-0.7-0.6-1.4-1-1.9c-0.4-0.5-1-1-1.6-1.3c-0.6-0.3-1.4-0.5-2.3-0.5c-0.9,0-1.7,0.2-2.4,0.5s-1.3,0.8-1.7,1.3
					c-0.5,0.6-0.8,1.2-1.1,1.9s-0.4,1.4-0.5,2.2H369.5z"/>
			</g>
		</g>
	</g>
</g>
<g>
	<g>
		<path fill="#231F20" d="M76.6,320.1c1.4,2.5,3,5.5,4.8,9c1.7,3.6,3.5,7.3,5.3,11.2c1.8,3.9,3.6,7.9,5.4,12
			c1.8,4.1,3.4,7.8,4.9,11.2c1.5-3.4,3.1-7.2,4.9-11.2c1.8-4,3.5-8,5.3-12c1.8-3.9,3.6-7.7,5.3-11.2c1.7-3.6,3.3-6.6,4.8-9h11
			c0.6,4.9,1.2,10.2,1.7,15.7c0.5,5.5,1,11.2,1.4,17c0.4,5.8,0.8,11.6,1.2,17.5c0.4,5.9,0.7,11.6,0.9,17.2h-12.1
			c-0.3-7.8-0.6-15.9-0.9-24.2c-0.4-8.3-0.9-16.3-1.6-24.1c-0.7,1.5-1.6,3.3-2.5,5.3c-1,2.1-2,4.3-3.1,6.8c-1.1,2.4-2.2,4.9-3.4,7.5
			c-1.1,2.6-2.2,5.1-3.3,7.5c-1.1,2.4-2.1,4.7-3,6.8c-0.9,2.1-1.7,3.9-2.3,5.4h-9.1c-0.6-1.5-1.4-3.3-2.3-5.4
			c-0.9-2.1-1.9-4.4-3-6.9s-2.2-4.9-3.3-7.5c-1.1-2.6-2.3-5.1-3.4-7.5c-1.1-2.4-2.1-4.7-3.1-6.8c-1-2.1-1.8-3.9-2.5-5.3
			c-0.7,7.8-1.3,15.8-1.6,24.1c-0.4,8.3-0.7,16.4-0.9,24.2H60c0.3-5.6,0.6-11.3,0.9-17.3c0.4-6,0.8-11.9,1.2-17.7
			c0.4-5.9,0.9-11.6,1.4-17.1c0.5-5.5,1.1-10.6,1.7-15.3H76.6z"/>
		<path fill="#231F20" d="M164.1,335.3c3.9,0,7.2,0.5,9.8,1.5c2.7,1,4.8,2.3,6.4,4.1s2.7,3.9,3.4,6.4c0.7,2.5,1,5.2,1,8.2v30.8
			c-1.8,0.4-4.6,0.9-8.2,1.4c-3.7,0.6-7.8,0.8-12.4,0.8c-3,0-5.8-0.3-8.4-0.9c-2.5-0.6-4.7-1.5-6.5-2.8c-1.8-1.3-3.2-3-4.2-5.1
			c-1-2.1-1.5-4.6-1.5-7.7c0-2.9,0.6-5.4,1.7-7.4c1.1-2,2.7-3.6,4.6-4.9c1.9-1.3,4.2-2.2,6.8-2.7c2.6-0.6,5.2-0.8,8-0.8
			c1.3,0,2.7,0.1,4.1,0.2c1.4,0.2,2.9,0.4,4.6,0.8v-1.9c0-1.4-0.2-2.7-0.5-3.9c-0.3-1.2-0.9-2.3-1.7-3.3c-0.8-0.9-1.9-1.7-3.2-2.2
			c-1.3-0.5-3-0.8-5-0.8c-2.7,0-5.2,0.2-7.5,0.6c-2.3,0.4-4.1,0.8-5.5,1.4l-1.5-9.5c1.5-0.5,3.7-1,6.5-1.6
			C157.9,335.6,160.9,335.3,164.1,335.3z M165.1,379.2c3.6,0,6.4-0.2,8.3-0.6v-13c-0.6-0.2-1.6-0.4-2.8-0.6
			c-1.2-0.2-2.6-0.3-4.1-0.3c-1.3,0-2.6,0.1-3.9,0.3c-1.3,0.2-2.5,0.6-3.6,1.1c-1.1,0.5-1.9,1.2-2.6,2.2c-0.6,0.9-1,2.1-1,3.5
			c0,2.8,0.9,4.7,2.6,5.8C159.8,378.6,162.1,379.2,165.1,379.2z"/>
		<path fill="#231F20" d="M199.1,338.3c2.3-0.6,5.2-1.3,8.8-1.8c3.6-0.6,7.6-0.9,12.1-0.9c4.1,0,7.6,0.6,10.4,1.7
			c2.8,1.1,5,2.7,6.7,4.8c1.7,2,2.8,4.5,3.5,7.4c0.7,2.9,1,6,1,9.5v28.6h-11.8v-26.7c0-2.7-0.2-5-0.5-6.9c-0.4-1.9-0.9-3.5-1.8-4.7
			c-0.8-1.2-1.9-2.1-3.3-2.6c-1.4-0.6-3.1-0.8-5.1-0.8c-1.5,0-3,0.1-4.7,0.3c-1.6,0.2-2.8,0.4-3.6,0.5v41h-11.8V338.3z"/>
		<path fill="#231F20" d="M269.1,321.7c0,2.2-0.7,4-2.1,5.2c-1.4,1.3-3.1,1.9-5.1,1.9c-2,0-3.7-0.6-5.2-1.9c-1.4-1.3-2.1-3-2.1-5.2
			c0-2.3,0.7-4.1,2.1-5.3c1.4-1.3,3.1-1.9,5.2-1.9c1.9,0,3.6,0.6,5.1,1.9C268.4,317.7,269.1,319.5,269.1,321.7z M267.9,387.4h-11.8
			v-50.8h11.8V387.4z"/>
		<path fill="#231F20" d="M303.5,312c2.7,0,5.1,0.2,7.2,0.7c2.1,0.5,3.6,0.9,4.7,1.3l-2.2,9.7c-1.1-0.5-2.4-0.9-3.8-1.3
			s-3-0.5-4.7-0.5c-1.9,0-3.5,0.3-4.8,0.8c-1.3,0.6-2.3,1.3-3.1,2.3c-0.8,1-1.3,2.2-1.7,3.5c-0.3,1.4-0.5,2.9-0.5,4.5v3.4h18.5v9.8
			h-18.5v41h-11.8V333c0-6.5,1.7-11.7,5.2-15.4C291.4,313.9,296.6,312,303.5,312z"/>
		<path fill="#231F20" d="M317.9,362.3c0-4.5,0.7-8.4,2-11.8c1.3-3.4,3.1-6.2,5.3-8.4c2.2-2.2,4.7-3.9,7.6-5.1
			c2.9-1.1,5.8-1.7,8.7-1.7c7,0,12.5,2.2,16.4,6.5c3.9,4.3,5.9,10.8,5.9,19.4c0,0.6,0,1.4,0,2.2c0,0.8-0.1,1.5-0.1,2.2h-33.5
			c0.3,4.1,1.8,7.2,4.3,9.5c2.6,2.2,6.3,3.4,11.1,3.4c2.9,0,5.5-0.3,7.8-0.8c2.4-0.5,4.2-1.1,5.6-1.7l1.6,9.6
			c-0.6,0.3-1.5,0.7-2.7,1c-1.1,0.4-2.4,0.7-3.9,1s-3,0.5-4.7,0.7c-1.7,0.2-3.4,0.3-5.2,0.3c-4.5,0-8.4-0.7-11.7-2
			c-3.3-1.3-6-3.2-8.2-5.5s-3.7-5.2-4.8-8.4C318.4,369.6,317.9,366.1,317.9,362.3z M352,357c0-1.6-0.2-3.2-0.7-4.6
			c-0.5-1.5-1.1-2.7-2-3.8c-0.9-1.1-1.9-1.9-3.2-2.5c-1.3-0.6-2.8-0.9-4.5-0.9c-1.8,0-3.4,0.3-4.8,1c-1.4,0.7-2.5,1.6-3.5,2.7
			c-0.9,1.1-1.7,2.4-2.2,3.8c-0.5,1.4-0.9,2.9-1.1,4.4H352z"/>
		<path fill="#231F20" d="M389,379c3.1,0,5.4-0.4,6.8-1.1c1.4-0.7,2.1-2,2.1-3.8c0-1.7-0.8-3.1-2.3-4.2c-1.5-1.1-4-2.3-7.5-3.6
			c-2.1-0.8-4.1-1.6-5.9-2.5c-1.8-0.9-3.3-1.9-4.6-3.1c-1.3-1.2-2.3-2.6-3.1-4.2c-0.7-1.7-1.1-3.7-1.1-6.1c0-4.7,1.7-8.3,5.2-11
			c3.4-2.7,8.1-4,14-4c3,0,5.8,0.3,8.6,0.8c2.7,0.6,4.8,1.1,6.1,1.6l-2.1,9.5c-1.3-0.6-3-1.1-5-1.6c-2-0.5-4.3-0.7-7-0.7
			c-2.4,0-4.3,0.4-5.8,1.2c-1.5,0.8-2.2,2.1-2.2,3.7c0,0.8,0.1,1.6,0.4,2.2c0.3,0.6,0.8,1.2,1.5,1.8c0.7,0.6,1.7,1.1,2.8,1.7
			c1.2,0.6,2.6,1.1,4.3,1.7c2.8,1,5.2,2.1,7.1,3.1c1.9,1,3.5,2.1,4.8,3.4s2.2,2.7,2.8,4.3s0.9,3.6,0.9,5.8c0,4.9-1.8,8.5-5.4,11
			s-8.7,3.7-15.4,3.7c-4.5,0-8.1-0.4-10.8-1.1s-4.6-1.3-5.7-1.8l2-9.8c1.8,0.7,3.8,1.4,6.3,2C383.1,378.7,385.9,379,389,379z"/>
		<path fill="#231F20" d="M420.1,323.2l11.8-1.9v15.4h18.1v9.8h-18.1v20.7c0,4.1,0.6,7,1.9,8.7c1.3,1.8,3.5,2.6,6.6,2.6
			c2.1,0,4-0.2,5.7-0.7s3-0.9,3.9-1.3l1.9,9.3c-1.4,0.6-3.1,1.2-5.3,1.8s-4.8,0.9-7.8,0.9c-3.6,0-6.7-0.5-9.1-1.5
			c-2.4-1-4.4-2.4-5.8-4.2c-1.4-1.8-2.4-4.1-3-6.7c-0.6-2.6-0.9-5.6-0.9-9V323.2z"/>
	</g>
</g>
<g>
	<path d="M384.9,73.2l-127.1,70.7l69.3,40.2l72.3-39.8V81.5C399.3,72.3,392.9,68.6,384.9,73.2z"/>
	<path d="M112.7,81.5c0-9.2,6.5-12.9,14.4-8.3l50,28.9v152.5c0,9.2-1.8,13.9-9.7,18.5l-40.3,22.3c-7.9,4.6-14.4,0.8-14.4-8.3V81.5z"
		/>
	<path d="M181.6,104.9v78.9l58.2,33.3c4.9,3.4,19.2,5.5,28.8,0l53.8-30.4L181.6,104.9z"/>
	<path d="M334.9,254.6c0,9.2,1.8,13.9,9.7,18.5l40.3,22.3c7.9,4.6,14.4,0.8,14.4-8.3V149.3l-64.5,35.8V254.6z"/>
</g>
</svg>
