<?xml version="1.0" encoding="utf-8"?>
<!-- Generator: Adobe Illustrator 16.0.0, SVG Export Plug-In . SVG Version: 6.00 Build 0)  -->
<!DOCTYPE svg PUBLIC "-//W3C//DTD SVG 1.1//EN" "http://www.w3.org/Graphics/SVG/1.1/DTD/svg11.dtd">
<svg version="1.1" id="Layer_1" xmlns="http://www.w3.org/2000/svg" xmlns:xlink="http://www.w3.org/1999/xlink" x="0px" y="0px"
	 width="512px" height="512px" viewBox="0 0 512 512" enable-background="new 0 0 512 512" xml:space="preserve">
<g>
	<path fill="#EAEAEA" d="M435.9,100.9l-177.3,98.7l96.6,56.2L456,200.2v-87.7C456,99.8,446.9,94.5,435.9,100.9z"/>
	<path fill="#EAEAEA" d="M56,112.5c0-12.8,9.1-18,20.1-11.6l69.8,40.4v212.8c0,12.8-2.5,19.4-13.6,25.8l-56.3,31.2
		c-11.1,6.4-20.1,1.2-20.1-11.6V112.5z"/>
	<path fill="#EAEAEA" d="M152.3,145.2v110.1l81.2,46.5c6.9,4.8,26.8,7.7,40.1,0l75.1-42.4L152.3,145.2z"/>
	<path fill="#EAEAEA" d="M366,354.1c0,12.8,2.5,19.4,13.6,25.8l56.3,31.2c11.1,6.4,20.1,1.2,20.1-11.6V207.2l-90,49.9V354.1z"/>
</g>
</svg>
