<?xml version="1.0" encoding="utf-8"?>
<!-- Generator: Adobe Illustrator 16.0.0, SVG Export Plug-In . SVG Version: 6.00 Build 0)  -->
<!DOCTYPE svg PUBLIC "-//W3C//DTD SVG 1.1//EN" "http://www.w3.org/Graphics/SVG/1.1/DTD/svg11.dtd">
<svg version="1.1" id="Layer_1" xmlns="http://www.w3.org/2000/svg" xmlns:xlink="http://www.w3.org/1999/xlink" x="0px" y="0px"
	 width="512px" height="256px" viewBox="0 0 512 256" enable-background="new 0 0 512 256" xml:space="preserve">
<g>
	<g>
		<g>
			<g>
				<g>
					<path fill="#606161" d="M280.4,159h3.4v19h-3.4V159z"/>
					<path fill="#606161" d="M288.2,164.1c0.6-0.2,1.5-0.4,2.5-0.5s2.2-0.2,3.4-0.2c1.2,0,2.1,0.2,2.9,0.5c0.8,0.3,1.4,0.8,1.9,1.3
						c0.5,0.6,0.8,1.3,1,2.1c0.2,0.8,0.3,1.7,0.3,2.7v8h-3.3v-7.5c0-0.8-0.1-1.4-0.2-2c-0.1-0.5-0.3-1-0.5-1.3s-0.5-0.6-0.9-0.7
						s-0.9-0.2-1.4-0.2c-0.4,0-0.9,0-1.3,0.1s-0.8,0.1-1,0.1V178h-3.3V164.1z"/>
					<path fill="#606161" d="M304,159.9l3.3-0.5v4.3h5.1v2.8h-5.1v5.8c0,1.1,0.2,2,0.5,2.5c0.4,0.5,1,0.7,1.9,0.7
						c0.6,0,1.1-0.1,1.6-0.2c0.5-0.1,0.8-0.2,1.1-0.4l0.5,2.6c-0.4,0.2-0.9,0.3-1.5,0.5c-0.6,0.2-1.4,0.3-2.2,0.3
						c-1,0-1.9-0.1-2.6-0.4s-1.2-0.7-1.6-1.2c-0.4-0.5-0.7-1.2-0.8-1.9c-0.2-0.7-0.2-1.6-0.2-2.5V159.9z"/>
					<path fill="#606161" d="M314.6,170.9c0-1.3,0.2-2.4,0.6-3.3c0.4-0.9,0.9-1.7,1.5-2.4c0.6-0.6,1.3-1.1,2.1-1.4s1.6-0.5,2.5-0.5
						c2,0,3.5,0.6,4.6,1.8s1.7,3,1.7,5.5c0,0.2,0,0.4,0,0.6c0,0.2,0,0.4,0,0.6H318c0.1,1.1,0.5,2,1.2,2.7c0.7,0.6,1.8,0.9,3.1,0.9
						c0.8,0,1.5-0.1,2.2-0.2c0.7-0.1,1.2-0.3,1.6-0.5l0.4,2.7c-0.2,0.1-0.4,0.2-0.8,0.3s-0.7,0.2-1.1,0.3c-0.4,0.1-0.9,0.2-1.3,0.2
						s-1,0.1-1.5,0.1c-1.3,0-2.4-0.2-3.3-0.6s-1.7-0.9-2.3-1.6c-0.6-0.7-1-1.5-1.3-2.4S314.6,172,314.6,170.9z M324.2,169.4
						c0-0.5-0.1-0.9-0.2-1.3c-0.1-0.4-0.3-0.8-0.6-1.1c-0.2-0.3-0.5-0.5-0.9-0.7c-0.4-0.2-0.8-0.3-1.3-0.3c-0.5,0-1,0.1-1.3,0.3
						c-0.4,0.2-0.7,0.4-1,0.8s-0.5,0.7-0.6,1.1c-0.1,0.4-0.2,0.8-0.3,1.2H324.2z"/>
					<path fill="#606161" d="M339.2,166.6c-0.3-0.1-0.7-0.2-1.1-0.3s-1-0.2-1.7-0.2c-0.4,0-0.8,0-1.2,0.1c-0.4,0.1-0.7,0.1-0.9,0.2
						V178H331v-13.6c0.6-0.2,1.4-0.5,2.4-0.7s2-0.3,3.2-0.3c0.2,0,0.5,0,0.8,0c0.3,0,0.6,0.1,0.9,0.1s0.6,0.1,0.8,0.2
						c0.3,0.1,0.5,0.1,0.7,0.2L339.2,166.6z"/>
					<path fill="#606161" d="M346.8,163.3c1.1,0,2,0.1,2.8,0.4c0.7,0.3,1.3,0.7,1.8,1.1c0.4,0.5,0.8,1.1,1,1.8
						c0.2,0.7,0.3,1.5,0.3,2.3v8.7c-0.5,0.1-1.3,0.2-2.3,0.4c-1,0.2-2.2,0.2-3.5,0.2c-0.9,0-1.6-0.1-2.4-0.2s-1.3-0.4-1.8-0.8
						c-0.5-0.4-0.9-0.8-1.2-1.4c-0.3-0.6-0.4-1.3-0.4-2.2c0-0.8,0.2-1.5,0.5-2.1s0.8-1,1.3-1.4c0.5-0.4,1.2-0.6,1.9-0.8
						c0.7-0.2,1.5-0.2,2.3-0.2c0.4,0,0.7,0,1.1,0.1c0.4,0,0.8,0.1,1.3,0.2v-0.5c0-0.4,0-0.7-0.1-1.1c-0.1-0.3-0.3-0.7-0.5-0.9
						c-0.2-0.3-0.5-0.5-0.9-0.6c-0.4-0.1-0.8-0.2-1.4-0.2c-0.8,0-1.5,0.1-2.1,0.2s-1.2,0.2-1.6,0.4l-0.4-2.7c0.4-0.1,1-0.3,1.8-0.4
						C345.1,163.4,345.9,163.3,346.8,163.3z M347.1,175.7c1,0,1.8-0.1,2.3-0.2v-3.7c-0.2-0.1-0.4-0.1-0.8-0.2s-0.7-0.1-1.2-0.1
						c-0.4,0-0.7,0-1.1,0.1s-0.7,0.2-1,0.3c-0.3,0.1-0.5,0.4-0.7,0.6s-0.3,0.6-0.3,1c0,0.8,0.2,1.3,0.7,1.6
						C345.6,175.5,346.3,175.7,347.1,175.7z"/>
					<path fill="#606161" d="M355.9,170.8c0-1.1,0.2-2,0.5-3c0.3-0.9,0.8-1.7,1.4-2.4c0.6-0.7,1.4-1.2,2.2-1.6
						c0.9-0.4,1.9-0.6,3-0.6c1.4,0,2.6,0.2,3.8,0.7l-0.7,2.7c-0.4-0.2-0.8-0.3-1.3-0.4s-1-0.2-1.5-0.2c-1.3,0-2.3,0.4-3,1.2
						c-0.7,0.8-1,2-1,3.4c0,1.4,0.3,2.6,1,3.4s1.7,1.2,3.2,1.2c0.6,0,1.1-0.1,1.7-0.2c0.5-0.1,1-0.2,1.4-0.4l0.5,2.7
						c-0.4,0.2-0.9,0.3-1.7,0.5c-0.7,0.1-1.5,0.2-2.3,0.2c-1.2,0-2.3-0.2-3.2-0.6s-1.7-0.9-2.2-1.6c-0.6-0.7-1-1.5-1.3-2.4
						C356,172.9,355.9,171.9,355.9,170.8z"/>
					<path fill="#606161" d="M369.4,159.9l3.3-0.5v4.3h5.1v2.8h-5.1v5.8c0,1.1,0.2,2,0.5,2.5c0.4,0.5,1,0.7,1.9,0.7
						c0.6,0,1.1-0.1,1.6-0.2c0.5-0.1,0.8-0.2,1.1-0.4l0.5,2.6c-0.4,0.2-0.9,0.3-1.5,0.5c-0.6,0.2-1.4,0.3-2.2,0.3
						c-1,0-1.9-0.1-2.6-0.4s-1.2-0.7-1.6-1.2c-0.4-0.5-0.7-1.2-0.8-1.9c-0.2-0.7-0.2-1.6-0.2-2.5V159.9z"/>
					<path fill="#606161" d="M384.7,159.5c0,0.6-0.2,1.1-0.6,1.5s-0.9,0.5-1.4,0.5c-0.6,0-1-0.2-1.5-0.5c-0.4-0.4-0.6-0.9-0.6-1.5
						c0-0.6,0.2-1.1,0.6-1.5c0.4-0.4,0.9-0.5,1.5-0.5c0.5,0,1,0.2,1.4,0.5S384.7,158.8,384.7,159.5z M384.4,178h-3.3v-14.3h3.3V178z
						"/>
					<path fill="#606161" d="M392.3,178c-0.9-1.9-1.9-4-2.8-6.5c-1-2.4-1.8-5.1-2.6-7.8h3.5c0.2,0.8,0.4,1.7,0.7,2.6
						s0.5,1.8,0.9,2.8c0.3,0.9,0.6,1.8,0.9,2.7c0.3,0.9,0.6,1.6,0.9,2.3c0.3-0.7,0.6-1.5,0.9-2.3c0.3-0.9,0.6-1.8,0.9-2.7
						c0.3-0.9,0.6-1.8,0.9-2.8c0.3-0.9,0.5-1.8,0.7-2.6h3.4c-0.8,2.8-1.7,5.4-2.6,7.8c-1,2.4-1.9,4.6-2.8,6.5H392.3z"/>
					<path fill="#606161" d="M401.9,170.9c0-1.3,0.2-2.4,0.6-3.3c0.4-0.9,0.9-1.7,1.5-2.4c0.6-0.6,1.3-1.1,2.1-1.4s1.6-0.5,2.5-0.5
						c2,0,3.5,0.6,4.6,1.8s1.7,3,1.7,5.5c0,0.2,0,0.4,0,0.6c0,0.2,0,0.4,0,0.6h-9.4c0.1,1.1,0.5,2,1.2,2.7c0.7,0.6,1.8,0.9,3.1,0.9
						c0.8,0,1.5-0.1,2.2-0.2c0.7-0.1,1.2-0.3,1.6-0.5l0.4,2.7c-0.2,0.1-0.4,0.2-0.8,0.3s-0.7,0.2-1.1,0.3c-0.4,0.1-0.9,0.2-1.3,0.2
						s-1,0.1-1.5,0.1c-1.3,0-2.4-0.2-3.3-0.6s-1.7-0.9-2.3-1.6c-0.6-0.7-1-1.5-1.3-2.4S401.9,172,401.9,170.9z M411.5,169.4
						c0-0.5-0.1-0.9-0.2-1.3c-0.1-0.4-0.3-0.8-0.6-1.1c-0.2-0.3-0.5-0.5-0.9-0.7c-0.4-0.2-0.8-0.3-1.3-0.3c-0.5,0-1,0.1-1.3,0.3
						c-0.4,0.2-0.7,0.4-1,0.8s-0.5,0.7-0.6,1.1c-0.1,0.4-0.2,0.8-0.3,1.2H411.5z"/>
				</g>
			</g>
		</g>
	</g>
	<g>
		<g>
			<path fill="#3D3D3D" d="M246.6,110.3c0.8,1.4,1.7,3.1,2.7,5.1c1,2,2,4.1,3,6.3c1,2.2,2,4.5,3,6.7c1,2.3,1.9,4.4,2.8,6.3
				c0.8-1.9,1.8-4,2.7-6.3c1-2.3,2-4.5,3-6.7c1-2.2,2-4.3,3-6.3c1-2,1.9-3.7,2.7-5.1h6.2c0.3,2.8,0.7,5.7,0.9,8.8s0.6,6.3,0.8,9.6
				c0.2,3.3,0.5,6.6,0.7,9.9c0.2,3.3,0.4,6.5,0.5,9.7h-6.8c-0.1-4.4-0.3-9-0.5-13.6c-0.2-4.7-0.5-9.2-0.9-13.6
				c-0.4,0.8-0.9,1.8-1.4,3c-0.5,1.2-1.1,2.4-1.8,3.8c-0.6,1.4-1.3,2.8-1.9,4.2c-0.6,1.5-1.3,2.9-1.9,4.2c-0.6,1.4-1.2,2.6-1.7,3.8
				c-0.5,1.2-0.9,2.2-1.3,3h-5.1c-0.4-0.8-0.8-1.9-1.3-3.1c-0.5-1.2-1.1-2.5-1.7-3.9c-0.6-1.4-1.2-2.8-1.9-4.2s-1.3-2.9-1.9-4.2
				c-0.6-1.3-1.2-2.6-1.8-3.8s-1-2.2-1.4-3c-0.4,4.4-0.7,8.9-0.9,13.6s-0.4,9.2-0.5,13.6h-6.8c0.1-3.1,0.3-6.4,0.5-9.7
				c0.2-3.4,0.4-6.7,0.7-10c0.2-3.3,0.5-6.5,0.8-9.6c0.3-3.1,0.6-6,0.9-8.6H246.6z"/>
			<path fill="#3D3D3D" d="M295.8,118.9c2.2,0,4,0.3,5.5,0.8c1.5,0.5,2.7,1.3,3.6,2.3c0.9,1,1.5,2.2,1.9,3.6
				c0.4,1.4,0.6,2.9,0.6,4.6v17.4c-1,0.2-2.6,0.5-4.6,0.8c-2.1,0.3-4.4,0.5-7,0.5c-1.7,0-3.3-0.2-4.7-0.5c-1.4-0.3-2.6-0.9-3.6-1.6
				c-1-0.7-1.8-1.7-2.4-2.8c-0.6-1.2-0.8-2.6-0.8-4.3c0-1.6,0.3-3,1-4.2c0.6-1.1,1.5-2.1,2.6-2.8c1.1-0.7,2.4-1.2,3.8-1.5
				c1.4-0.3,2.9-0.5,4.5-0.5c0.7,0,1.5,0,2.3,0.1c0.8,0.1,1.7,0.2,2.6,0.5v-1.1c0-0.8-0.1-1.5-0.3-2.2c-0.2-0.7-0.5-1.3-1-1.8
				c-0.5-0.5-1.1-0.9-1.8-1.2c-0.7-0.3-1.7-0.4-2.8-0.4c-1.5,0-2.9,0.1-4.2,0.3c-1.3,0.2-2.3,0.5-3.1,0.8l-0.8-5.4
				c0.8-0.3,2.1-0.6,3.7-0.9C292.3,119.1,294,118.9,295.8,118.9z M296.4,143.6c2,0,3.6-0.1,4.7-0.3V136c-0.4-0.1-0.9-0.2-1.6-0.3
				s-1.5-0.2-2.3-0.2c-0.7,0-1.5,0.1-2.2,0.2s-1.4,0.3-2,0.6c-0.6,0.3-1.1,0.7-1.5,1.2c-0.4,0.5-0.5,1.2-0.5,2
				c0,1.6,0.5,2.7,1.5,3.3C293.4,143.3,294.7,143.6,296.4,143.6z"/>
			<path fill="#3D3D3D" d="M315.6,120.6c1.3-0.4,2.9-0.7,5-1c2-0.3,4.3-0.5,6.8-0.5c2.3,0,4.3,0.3,5.9,1c1.6,0.6,2.8,1.5,3.8,2.7
				c0.9,1.1,1.6,2.5,2,4.2c0.4,1.6,0.6,3.4,0.6,5.3v16.1h-6.6v-15.1c0-1.5-0.1-2.8-0.3-3.9c-0.2-1.1-0.5-2-1-2.6
				c-0.5-0.7-1.1-1.2-1.9-1.5c-0.8-0.3-1.7-0.5-2.9-0.5c-0.8,0-1.7,0.1-2.6,0.2c-0.9,0.1-1.6,0.2-2,0.3v23.1h-6.6V120.6z"/>
			<path fill="#3D3D3D" d="M355,111.3c0,1.2-0.4,2.2-1.2,3c-0.8,0.7-1.8,1.1-2.8,1.1c-1.1,0-2.1-0.4-2.9-1.1c-0.8-0.7-1.2-1.7-1.2-3
				c0-1.3,0.4-2.3,1.2-3c0.8-0.7,1.8-1.1,2.9-1.1c1.1,0,2,0.4,2.8,1.1C354.6,109,355,110,355,111.3z M354.3,148.3h-6.6v-28.6h6.6
				V148.3z"/>
			<path fill="#3D3D3D" d="M374.4,105.8c1.5,0,2.9,0.1,4.1,0.4c1.2,0.3,2,0.5,2.6,0.7l-1.3,5.5c-0.6-0.3-1.3-0.5-2.2-0.7
				c-0.8-0.2-1.7-0.3-2.7-0.3c-1.1,0-2,0.2-2.7,0.5c-0.7,0.3-1.3,0.7-1.8,1.3c-0.4,0.5-0.7,1.2-0.9,2c-0.2,0.8-0.3,1.6-0.3,2.5v1.9
				h10.4v5.5h-10.4v23.1h-6.6v-30.7c0-3.7,1-6.6,2.9-8.7C367.5,106.9,370.4,105.8,374.4,105.8z"/>
			<path fill="#3D3D3D" d="M382.5,134.1c0-2.5,0.4-4.7,1.1-6.6c0.7-1.9,1.7-3.5,3-4.7c1.2-1.3,2.7-2.2,4.3-2.8c1.6-0.6,3.2-1,4.9-1
				c3.9,0,7,1.2,9.2,3.7c2.2,2.4,3.3,6.1,3.3,10.9c0,0.4,0,0.8,0,1.2c0,0.5,0,0.9-0.1,1.2h-18.9c0.2,2.3,1,4.1,2.4,5.3
				c1.4,1.3,3.5,1.9,6.3,1.9c1.6,0,3.1-0.1,4.4-0.4s2.4-0.6,3.1-0.9l0.9,5.4c-0.4,0.2-0.9,0.4-1.5,0.6s-1.4,0.4-2.2,0.5
				s-1.7,0.3-2.7,0.4c-1,0.1-1.9,0.2-2.9,0.2c-2.5,0-4.7-0.4-6.6-1.1c-1.9-0.7-3.4-1.8-4.6-3.1c-1.2-1.3-2.1-2.9-2.7-4.7
				C382.7,138.2,382.5,136.3,382.5,134.1z M401.7,131.1c0-0.9-0.1-1.8-0.4-2.6c-0.3-0.8-0.6-1.5-1.1-2.1c-0.5-0.6-1.1-1.1-1.8-1.4
				c-0.7-0.3-1.6-0.5-2.5-0.5c-1,0-1.9,0.2-2.7,0.6s-1.4,0.9-1.9,1.5c-0.5,0.6-0.9,1.3-1.2,2.1c-0.3,0.8-0.5,1.6-0.6,2.5H401.7z"/>
			<path fill="#3D3D3D" d="M422.5,143.5c1.8,0,3-0.2,3.8-0.6c0.8-0.4,1.2-1.1,1.2-2.2c0-0.9-0.4-1.7-1.3-2.4c-0.9-0.6-2.3-1.3-4.2-2
				c-1.2-0.4-2.3-0.9-3.3-1.4c-1-0.5-1.9-1.1-2.6-1.7c-0.7-0.7-1.3-1.5-1.7-2.4c-0.4-0.9-0.6-2.1-0.6-3.4c0-2.6,1-4.7,2.9-6.2
				c1.9-1.5,4.6-2.3,7.9-2.3c1.7,0,3.3,0.2,4.8,0.5c1.5,0.3,2.7,0.6,3.4,0.9l-1.2,5.4c-0.7-0.3-1.7-0.6-2.8-0.9
				c-1.1-0.3-2.4-0.4-3.9-0.4c-1.4,0-2.4,0.2-3.3,0.7c-0.8,0.5-1.3,1.2-1.3,2.1c0,0.5,0.1,0.9,0.2,1.3c0.2,0.4,0.4,0.7,0.8,1
				c0.4,0.3,0.9,0.6,1.6,0.9c0.7,0.3,1.5,0.6,2.4,1c1.6,0.6,2.9,1.2,4,1.7c1.1,0.6,2,1.2,2.7,1.9c0.7,0.7,1.2,1.5,1.6,2.4
				c0.3,0.9,0.5,2,0.5,3.3c0,2.7-1,4.8-3,6.2c-2,1.4-4.9,2.1-8.7,2.1c-2.5,0-4.5-0.2-6.1-0.6s-2.6-0.8-3.2-1l1.2-5.5
				c1,0.4,2.2,0.8,3.5,1.1C419.2,143.3,420.7,143.5,422.5,143.5z"/>
			<path fill="#3D3D3D" d="M440,112.1l6.6-1.1v8.7h10.2v5.5h-10.2v11.7c0,2.3,0.4,3.9,1.1,4.9c0.7,1,2,1.5,3.7,1.5
				c1.2,0,2.3-0.1,3.2-0.4c0.9-0.3,1.7-0.5,2.2-0.7l1.1,5.3c-0.8,0.3-1.8,0.7-3,1c-1.2,0.3-2.7,0.5-4.4,0.5c-2,0-3.8-0.3-5.1-0.8
				c-1.4-0.5-2.5-1.3-3.3-2.4c-0.8-1-1.4-2.3-1.7-3.8s-0.5-3.2-0.5-5.1V112.1z"/>
		</g>
	</g>
	<g>
		
			<linearGradient id="SVGID_1_" gradientUnits="userSpaceOnUse" x1="242.8501" y1="217.3999" x2="307.8848" y2="217.3999" gradientTransform="matrix(0 -1 1 0 -43.0449 372.1689)">
			<stop  offset="0" style="stop-color:#FFD546"/>
			<stop  offset="1" style="stop-color:#FAA222"/>
		</linearGradient>
		<path fill="url(#SVGID_1_)" d="M207.4,65.4l-74.2,41.3l39,22.7l43.3-23.8V70.1C215.5,64.9,211.9,62.8,207.4,65.4z"/>
		<g>
			<linearGradient id="SVGID_2_" gradientUnits="userSpaceOnUse" x1="197.3462" y1="109.7788" x2="197.3462" y2="187.8394">
				<stop  offset="0" style="stop-color:#ED5153"/>
				<stop  offset="1" style="stop-color:#AF1116"/>
			</linearGradient>
			<path fill="url(#SVGID_2_)" d="M179.2,125.5v42.1c0,5.2,1,7.8,5.5,10.4l22.7,12.6c4.5,2.6,8.1,0.5,8.1-4.7v-80.4L179.2,125.5z"/>
		</g>
		
			<linearGradient id="SVGID_3_" gradientUnits="userSpaceOnUse" x1="266.3877" y1="139.6274" x2="223.7709" y2="206.8762" gradientTransform="matrix(0 -1 1 0 -43.0449 372.1689)">
			<stop  offset="0" style="stop-color:#A9C638"/>
			<stop  offset="1" style="stop-color:#7AA737"/>
		</linearGradient>
		<path fill="url(#SVGID_3_)" d="M90.4,126.2l35.3,20.2c2.8,1.9,10.8,3.1,16.2,0l30.3-17.1L90.4,81.8V126.2z"/>
		<polygon fill="#A57E2D" points="133.2,106.7 172.2,129.3 174.8,127.9 135.8,105.2 		"/>
		
			<linearGradient id="SVGID_4_" gradientUnits="userSpaceOnUse" x1="374.5898" y1="449.5732" x2="374.5898" y2="564.9215" gradientTransform="matrix(1 0 0 1 -302.3877 -378.9355)">
			<stop  offset="0" style="stop-color:#57CBF5"/>
			<stop  offset="1" style="stop-color:#028ABA"/>
		</linearGradient>
		<path fill="url(#SVGID_4_)" d="M54,70.1c0-5.2,3.7-7.3,8.1-4.7l28.2,16.3v85.9c0,5.2-1,7.8-5.5,10.4l-22.7,12.6
			c-4.5,2.6-8.1,0.5-8.1-4.7V70.1z"/>
		<polygon fill="#648641" points="92.9,83.2 90.4,81.8 90.4,126.2 92.9,127.7 		"/>
		<polygon fill="#8E2629" points="179.2,125.5 179.2,128.5 215.5,108.3 215.5,105.5 		"/>
	</g>
</g>
</svg>
